<?xml version="1.0" encoding="UTF-8"?>
<svg id="_图层_1" data-name="图层 1" xmlns="http://www.w3.org/2000/svg" xmlns:xlink="http://www.w3.org/1999/xlink" viewBox="0 0 58.19 72.64">
  <defs>
    <style>
      .cls-1 {
        fill: #f6b170;
      }

      .cls-2 {
        fill: #ee8283;
      }

      .cls-3 {
        fill: #af7bb3;
      }

      .cls-4 {
        fill: #5fb864;
      }

      .cls-5 {
        fill: #184fa1;
        font-family: GillSans-UltraBoldCondensed, 'Gill Sans';
        font-size: 10px;
        font-weight: 700;
      }

      .cls-6 {
        fill: url(#_未命名的渐变_2);
        stroke: #184fa1;
        stroke-miterlimit: 10;
        stroke-width: 1.5px;
      }
    </style>
    <linearGradient id="_未命名的渐变_2" data-name="未命名的渐变 2" x1=".75" y1="36.32" x2="57.44" y2="36.32" gradientUnits="userSpaceOnUse">
      <stop offset=".02" stop-color="#eaf4ea"/>
      <stop offset=".15" stop-color="#ebf3e9"/>
      <stop offset=".2" stop-color="#f2f3e7"/>
      <stop offset=".23" stop-color="#fdf2e4"/>
      <stop offset=".4" stop-color="#fbf1e5"/>
      <stop offset=".46" stop-color="#f7f0ec"/>
      <stop offset=".5" stop-color="#f1eef7"/>
      <stop offset=".7" stop-color="#f2eef6"/>
      <stop offset=".77" stop-color="#f9f1f5"/>
      <stop offset=".78" stop-color="#fbf2f5"/>
      <stop offset=".98" stop-color="#fcf3f4"/>
      <stop offset="1" stop-color="#fef4f4"/>
    </linearGradient>
  </defs>
  <polygon class="cls-6" points="57.44 54.03 29.1 71.75 .75 54.03 .75 18.6 29.1 .88 57.44 18.6 57.44 54.03"/>
  <text class="cls-5" transform="translate(8.6 54.81)"><tspan x="0" y="0">sysAgNPs</tspan></text>
  <g>
    <path class="cls-2" d="M20.99,23.09c.75-.62,2.01-.64,2.14-.64,3.74-.05,4.13,.08,5.97,.08,1.1,0,2.04,.46,2.4,1.23,.08,.17,.16,.43,.16,.78,0,.73,.02,1.46,.03,2.19,0,.1,.04,.41,.29,.7,.28,.31,.63,.36,.72,.37h2.75s.53,.02,.83-.37c.2-.27,.19-.56,.19-.65,.01-.98,.02-1.95,.03-2.93-.04-.17-.12-.42-.34-.6-.25-.2-.55-.2-.85-.2-1.76,.02-2-.02-2.21-.06-.54-.13-.89-.35-1.04-.45-.24-.16-.55-.38-.75-.8-.21-.44-.19-.85-.17-1.02v-2.19c-.01-.09-.09-.52-.48-.82-.31-.24-.64-.26-.75-.26-2.64-.01-5.27-.02-7.91-.03-.12,0-.47,.05-.79,.33-.35,.31-.43,.7-.44,.81,0,.85,.01,1.7,.02,2.55,0,.13-.01,.37-.12,.65-.03,.08-.14,.34-.38,.6-.05,.06-.21,.22-.46,.37-.35,.21-.69,.28-.91,.3l-2.02,.02c-.27,0-.61,0-.93,.23-.09,.06-.28,.19-.39,.44-.06,.14-.07,.27-.07,.35,0,.25-.04,1.51-.02,2.69,0,.15,.01,.42,.19,.65,.3,.39,.78,.38,.83,.37h2.75c.16-.03,.48-.11,.72-.37,.15-.17,.29-.36,.29-.7,0-.73,.02-1.46,.03-2.19,0-.17,.01-.46,.16-.78,.17-.36,.41-.57,.53-.67Z"/>
    <path class="cls-1" d="M21.27,38.88c-.62-.75-.64-2.01-.64-2.14-.05-3.74,.08-4.13,.08-5.97,0-1.1,.46-2.04,1.23-2.4,.17-.08,.43-.16,.78-.16,.73,0,1.46-.02,2.19-.03,.1,0,.41-.04,.7-.29,.31-.28,.36-.63,.37-.72v-2.75s.02-.53-.37-.83c-.27-.2-.56-.19-.65-.19-.98-.01-1.95-.02-2.93-.03-.17,.04-.42,.12-.6,.34-.2,.25-.2,.55-.2,.85,.02,1.76-.02,2-.06,2.21-.13,.54-.35,.89-.45,1.04-.16,.24-.38,.55-.8,.75-.44,.21-.85,.19-1.02,.17h-2.19c-.09,.01-.52,.09-.82,.48-.24,.31-.26,.64-.26,.75-.01,2.64-.02,5.27-.03,7.91,0,.12,.05,.47,.33,.79,.31,.35,.7,.43,.81,.44,.85,0,1.7-.01,2.55-.02,.13,0,.37,.01,.65,.12,.08,.03,.34,.14,.6,.38,.06,.05,.22,.21,.37,.46,.21,.35,.28,.69,.3,.91l.02,2.02c0,.27,0,.61,.23,.93,.06,.09,.19,.28,.44,.39,.14,.06,.27,.07,.35,.07,.25,0,1.51,.04,2.69,.02,.15,0,.42-.01,.65-.19,.39-.3,.38-.78,.37-.83v-2.75c-.03-.16-.11-.48-.37-.72-.17-.15-.36-.29-.7-.29-.73,0-1.46-.02-2.19-.03-.17,0-.46-.01-.78-.16-.36-.17-.57-.41-.67-.53Z"/>
    <path class="cls-3" d="M36.92,22.81c.62,.75,.64,2.01,.64,2.14,.05,3.74-.08,4.13-.08,5.97,0,1.1-.46,2.04-1.23,2.4-.17,.08-.43,.16-.78,.16-.73,0-1.46,.02-2.19,.03-.1,0-.41,.04-.7,.29-.31,.28-.36,.63-.37,.72v2.75s-.02,.53,.37,.83c.27,.2,.56,.19,.65,.19,.98,.01,1.95,.02,2.93,.03,.17-.04,.42-.12,.6-.34,.2-.25,.2-.55,.2-.85-.02-1.76,.02-2,.06-2.21,.13-.54,.35-.89,.45-1.04,.16-.24,.38-.55,.8-.75,.44-.21,.85-.19,1.02-.17h2.19c.09-.01,.52-.09,.82-.48,.24-.31,.26-.64,.26-.75,.01-2.64,.02-5.27,.03-7.91,0-.12-.05-.47-.33-.79-.31-.35-.7-.43-.81-.44-.85,0-1.7,.01-2.55,.02-.13,0-.37-.01-.65-.12-.08-.03-.34-.14-.6-.38-.06-.05-.22-.21-.37-.46-.21-.35-.28-.69-.3-.91l-.02-2.02c0-.27,0-.61-.23-.93-.06-.09-.19-.28-.44-.39-.14-.06-.27-.07-.35-.07-.25,0-1.51-.04-2.69-.02-.15,0-.42,.01-.65,.19-.39,.3-.38,.78-.37,.83v2.75c.03,.16,.11,.48,.37,.72,.17,.15,.36,.29,.7,.29,.73,0,1.46,.02,2.19,.03,.17,0,.46,.01,.78,.16,.36,.17,.57,.41,.67,.53Z"/>
    <path class="cls-4" d="M37.2,38.59c-.75,.62-2.01,.64-2.14,.64-3.74,.05-4.13-.08-5.97-.08-1.1,0-2.04-.46-2.4-1.23-.08-.17-.16-.43-.16-.78,0-.73-.02-1.46-.03-2.19,0-.1-.04-.41-.29-.7-.28-.31-.63-.36-.72-.37h-2.75s-.53-.02-.83,.37c-.2,.27-.19,.56-.19,.65-.01,.98-.02,1.95-.03,2.93,.04,.17,.12,.42,.34,.6,.25,.2,.55,.2,.85,.2,1.76-.02,2,.02,2.21,.06,.54,.13,.89,.35,1.04,.45,.24,.16,.55,.38,.75,.8,.21,.44,.19,.85,.17,1.02v2.19c.01,.09,.09,.52,.48,.82,.31,.24,.64,.26,.75,.26,2.64,.01,5.27,.02,7.91,.03,.12,0,.47-.05,.79-.33,.35-.31,.43-.7,.44-.81,0-.85-.01-1.7-.02-2.55,0-.13,.01-.37,.12-.65,.03-.08,.14-.34,.38-.6,.05-.06,.21-.22,.46-.37,.35-.21,.69-.28,.91-.3l2.02-.02c.27,0,.61,0,.93-.23,.09-.06,.28-.19,.39-.44,.06-.14,.07-.27,.07-.35,0-.25,.04-1.51,.02-2.69,0-.15-.01-.42-.19-.65-.3-.39-.78-.38-.83-.37h-2.75c-.16,.03-.48,.11-.72,.37-.15,.17-.29,.36-.29,.7,0,.73-.02,1.46-.03,2.19,0,.17-.01,.46-.16,.78-.17,.36-.41,.57-.53,.67Z"/>
  </g>
</svg>